<mxfile host="Electron" agent="Mozilla/5.0 (X11; Linux x86_64) AppleWebKit/537.36 (KHTML, like Gecko) draw.io/27.0.5 Chrome/134.0.6998.205 Electron/35.3.0 Safari/537.36" version="27.0.5">
  <diagram name="Page-1" id="2YBvvXClWsGukQMizWep">
    <mxGraphModel dx="1133" dy="703" grid="1" gridSize="10" guides="1" tooltips="1" connect="1" arrows="1" fold="1" page="1" pageScale="1" pageWidth="850" pageHeight="1100" math="0" shadow="0">
      <root>
        <mxCell id="0" />
        <mxCell id="1" parent="0" />
        <mxCell id="aM9ryv3xv72pqoxQDRHE-1" value="TABLERO" style="shape=umlLifeline;perimeter=lifelinePerimeter;whiteSpace=wrap;html=1;container=0;dropTarget=0;collapsible=0;recursiveResize=0;outlineConnect=0;portConstraint=eastwest;newEdgeStyle={&quot;edgeStyle&quot;:&quot;elbowEdgeStyle&quot;,&quot;elbow&quot;:&quot;vertical&quot;,&quot;curved&quot;:0,&quot;rounded&quot;:0};" parent="1" vertex="1">
          <mxGeometry x="140" y="80" width="100" height="410" as="geometry" />
        </mxCell>
        <mxCell id="aM9ryv3xv72pqoxQDRHE-5" value="SECCION" style="shape=umlLifeline;perimeter=lifelinePerimeter;whiteSpace=wrap;html=1;container=0;dropTarget=0;collapsible=0;recursiveResize=0;outlineConnect=0;portConstraint=eastwest;newEdgeStyle={&quot;edgeStyle&quot;:&quot;elbowEdgeStyle&quot;,&quot;elbow&quot;:&quot;vertical&quot;,&quot;curved&quot;:0,&quot;rounded&quot;:0};" parent="1" vertex="1">
          <mxGeometry x="290" y="120" width="100" height="300" as="geometry" />
        </mxCell>
        <mxCell id="mEw4SAiu0VgLOugW6xY2-1" value="UNIDAD" style="shape=umlLifeline;perimeter=lifelinePerimeter;whiteSpace=wrap;html=1;container=0;dropTarget=0;collapsible=0;recursiveResize=0;outlineConnect=0;portConstraint=eastwest;newEdgeStyle={&quot;edgeStyle&quot;:&quot;elbowEdgeStyle&quot;,&quot;elbow&quot;:&quot;vertical&quot;,&quot;curved&quot;:0,&quot;rounded&quot;:0};" vertex="1" parent="1">
          <mxGeometry x="440" y="120" width="100" height="300" as="geometry" />
        </mxCell>
        <mxCell id="mEw4SAiu0VgLOugW6xY2-3" value="RONDA" style="shape=umlActor;verticalLabelPosition=bottom;verticalAlign=top;html=1;outlineConnect=0;" vertex="1" parent="1">
          <mxGeometry x="40" y="30" width="30" height="60" as="geometry" />
        </mxCell>
        <mxCell id="mEw4SAiu0VgLOugW6xY2-4" value="" style="endArrow=none;dashed=1;html=1;rounded=0;" edge="1" parent="1">
          <mxGeometry width="50" height="50" relative="1" as="geometry">
            <mxPoint x="55" y="480" as="sourcePoint" />
            <mxPoint x="54.58" y="110" as="targetPoint" />
          </mxGeometry>
        </mxCell>
        <mxCell id="mEw4SAiu0VgLOugW6xY2-5" value="" style="endArrow=classic;html=1;rounded=0;dashed=1;" edge="1" parent="1">
          <mxGeometry width="50" height="50" relative="1" as="geometry">
            <mxPoint x="90" y="100" as="sourcePoint" />
            <mxPoint x="130" y="100" as="targetPoint" />
          </mxGeometry>
        </mxCell>
        <mxCell id="mEw4SAiu0VgLOugW6xY2-6" value="Tablero()" style="text;html=1;align=center;verticalAlign=middle;resizable=0;points=[];autosize=1;strokeColor=none;fillColor=none;" vertex="1" parent="1">
          <mxGeometry x="75" y="70" width="70" height="30" as="geometry" />
        </mxCell>
        <mxCell id="mEw4SAiu0VgLOugW6xY2-7" value="" style="endArrow=classic;html=1;rounded=0;dashed=1;" edge="1" parent="1">
          <mxGeometry width="50" height="50" relative="1" as="geometry">
            <mxPoint x="80" y="140" as="sourcePoint" />
            <mxPoint x="270" y="140" as="targetPoint" />
          </mxGeometry>
        </mxCell>
        <mxCell id="mEw4SAiu0VgLOugW6xY2-8" value="seccion()" style="text;html=1;align=center;verticalAlign=middle;resizable=0;points=[];autosize=1;strokeColor=none;fillColor=none;" vertex="1" parent="1">
          <mxGeometry x="70" y="120" width="70" height="30" as="geometry" />
        </mxCell>
        <mxCell id="mEw4SAiu0VgLOugW6xY2-9" value="" style="endArrow=classic;html=1;rounded=0;" edge="1" parent="1">
          <mxGeometry width="50" height="50" relative="1" as="geometry">
            <mxPoint x="60" y="180" as="sourcePoint" />
            <mxPoint x="189.5" y="180" as="targetPoint" />
          </mxGeometry>
        </mxCell>
        <mxCell id="mEw4SAiu0VgLOugW6xY2-10" value="puntajeJugador()" style="text;html=1;align=center;verticalAlign=middle;resizable=0;points=[];autosize=1;strokeColor=none;fillColor=none;" vertex="1" parent="1">
          <mxGeometry x="55" y="160" width="110" height="30" as="geometry" />
        </mxCell>
        <mxCell id="mEw4SAiu0VgLOugW6xY2-11" value="loop" style="shape=umlFrame;whiteSpace=wrap;html=1;pointerEvents=0;recursiveResize=0;container=1;collapsible=0;width=50;height=25;direction=west;" vertex="1" parent="1">
          <mxGeometry x="330" y="175" width="260" height="115" as="geometry" />
        </mxCell>
        <mxCell id="mEw4SAiu0VgLOugW6xY2-29" value="&lt;span style=&quot;color: rgb(255, 255, 255); font-family: Helvetica; font-size: 12px; font-style: normal; font-variant-ligatures: normal; font-variant-caps: normal; font-weight: 400; letter-spacing: normal; orphans: 2; text-align: center; text-indent: 0px; text-transform: none; widows: 2; word-spacing: 0px; -webkit-text-stroke-width: 0px; white-space: nowrap; background-color: rgb(27, 29, 30); text-decoration-thickness: initial; text-decoration-style: initial; text-decoration-color: initial; display: inline !important; float: none;&quot;&gt;[para cada unidad]&lt;/span&gt;" style="text;whiteSpace=wrap;html=1;" vertex="1" parent="mEw4SAiu0VgLOugW6xY2-11">
          <mxGeometry x="105" y="90" width="90" height="20" as="geometry" />
        </mxCell>
        <mxCell id="mEw4SAiu0VgLOugW6xY2-13" value="" style="endArrow=classic;html=1;rounded=0;" edge="1" parent="1">
          <mxGeometry width="50" height="50" relative="1" as="geometry">
            <mxPoint x="200" y="200" as="sourcePoint" />
            <mxPoint x="329.5" y="200" as="targetPoint" />
          </mxGeometry>
        </mxCell>
        <mxCell id="mEw4SAiu0VgLOugW6xY2-14" value="calcularPuntaje()" style="text;html=1;align=center;verticalAlign=middle;resizable=0;points=[];autosize=1;strokeColor=none;fillColor=none;" vertex="1" parent="1">
          <mxGeometry x="190" y="175" width="110" height="30" as="geometry" />
        </mxCell>
        <mxCell id="mEw4SAiu0VgLOugW6xY2-18" value="" style="endArrow=classic;html=1;rounded=0;" edge="1" parent="1">
          <mxGeometry width="50" height="50" relative="1" as="geometry">
            <mxPoint x="350" y="220" as="sourcePoint" />
            <mxPoint x="479.5" y="220" as="targetPoint" />
          </mxGeometry>
        </mxCell>
        <mxCell id="mEw4SAiu0VgLOugW6xY2-19" value="puntaje()" style="text;html=1;align=center;verticalAlign=middle;resizable=0;points=[];autosize=1;strokeColor=none;fillColor=none;" vertex="1" parent="1">
          <mxGeometry x="350" y="200" width="70" height="30" as="geometry" />
        </mxCell>
        <mxCell id="mEw4SAiu0VgLOugW6xY2-20" value="" style="endArrow=classic;html=1;rounded=0;dashed=1;" edge="1" parent="1" target="aM9ryv3xv72pqoxQDRHE-5">
          <mxGeometry width="50" height="50" relative="1" as="geometry">
            <mxPoint x="482.5" y="250.00000000000006" as="sourcePoint" />
            <mxPoint x="403" y="250" as="targetPoint" />
          </mxGeometry>
        </mxCell>
        <mxCell id="mEw4SAiu0VgLOugW6xY2-21" value="puntos" style="text;html=1;align=center;verticalAlign=middle;resizable=0;points=[];autosize=1;strokeColor=none;fillColor=none;" vertex="1" parent="1">
          <mxGeometry x="350" y="230" width="60" height="30" as="geometry" />
        </mxCell>
        <mxCell id="mEw4SAiu0VgLOugW6xY2-22" value="" style="endArrow=classic;html=1;rounded=0;dashed=1;" edge="1" parent="1">
          <mxGeometry width="50" height="50" relative="1" as="geometry">
            <mxPoint x="342.5" y="260.00000000000006" as="sourcePoint" />
            <mxPoint x="200" y="260" as="targetPoint" />
          </mxGeometry>
        </mxCell>
        <mxCell id="mEw4SAiu0VgLOugW6xY2-23" value="PuntosTotales" style="text;html=1;align=center;verticalAlign=middle;resizable=0;points=[];autosize=1;strokeColor=none;fillColor=none;" vertex="1" parent="1">
          <mxGeometry x="210" y="240" width="100" height="30" as="geometry" />
        </mxCell>
        <mxCell id="mEw4SAiu0VgLOugW6xY2-25" value="" style="endArrow=classic;html=1;rounded=0;dashed=1;" edge="1" parent="1">
          <mxGeometry width="50" height="50" relative="1" as="geometry">
            <mxPoint x="180" y="285.5" as="sourcePoint" />
            <mxPoint x="70" y="284.5" as="targetPoint" />
          </mxGeometry>
        </mxCell>
        <mxCell id="mEw4SAiu0VgLOugW6xY2-26" value="PuntajeDelJugador" style="text;html=1;align=center;verticalAlign=middle;resizable=0;points=[];autosize=1;strokeColor=none;fillColor=none;" vertex="1" parent="1">
          <mxGeometry x="60" y="255" width="130" height="30" as="geometry" />
        </mxCell>
        <mxCell id="mEw4SAiu0VgLOugW6xY2-30" value="loop" style="shape=umlFrame;whiteSpace=wrap;html=1;pointerEvents=0;recursiveResize=0;container=1;collapsible=0;width=50;height=25;direction=west;" vertex="1" parent="1">
          <mxGeometry x="175" y="160" width="525" height="290" as="geometry" />
        </mxCell>
        <mxCell id="mEw4SAiu0VgLOugW6xY2-12" value="[para cada seccion]" style="text;html=1;align=center;verticalAlign=middle;resizable=0;points=[];autosize=1;strokeColor=none;fillColor=none;" vertex="1" parent="mEw4SAiu0VgLOugW6xY2-30">
          <mxGeometry x="350" y="260" width="130" height="30" as="geometry" />
        </mxCell>
        <mxCell id="mEw4SAiu0VgLOugW6xY2-33" value="Unidad se debe haber creado al iniciar la partida" style="shape=note2;boundedLbl=1;whiteSpace=wrap;html=1;size=25;verticalAlign=top;align=left;spacingLeft=5;" vertex="1" parent="1">
          <mxGeometry x="420" y="30" width="190" height="70" as="geometry" />
        </mxCell>
      </root>
    </mxGraphModel>
  </diagram>
</mxfile>
